<svg xmlns="http://www.w3.org/2000/svg" viewBox="0 0 64 64">
  <defs>
    <radialGradient id="orb" cx="0.5" cy="0.4" r="0.62">
      <stop offset="0" stop-color="#fcfdbf"/>
      <stop offset="0.3" stop-color="#fe9f6d"/>
      <stop offset="0.68" stop-color="#de4968"/>
      <stop offset="1" stop-color="#8c2981"/>
    </radialGradient>
    <radialGradient id="halo" cx="0.5" cy="0.5" r="0.5">
      <stop offset="0.55" stop-color="#de4968" stop-opacity="0.35"/>
      <stop offset="1" stop-color="#de4968" stop-opacity="0"/>
    </radialGradient>
    <linearGradient id="edge" x1="0" y1="0" x2="1" y2="0">
      <stop offset="0" stop-color="#8c2981"/>
      <stop offset="0.5" stop-color="#de4968"/>
      <stop offset="1" stop-color="#fe9f6d"/>
    </linearGradient>
    <clipPath id="tile"><rect x="2" y="2" width="60" height="60" rx="15"/></clipPath>
  </defs>
  <rect x="2" y="2" width="60" height="60" rx="15" fill="#0e0c16"/>
  <g clip-path="url(#tile)">
    <circle cx="32" cy="26" r="26" fill="url(#halo)"/>
    <circle cx="32" cy="26" r="14.5" fill="url(#orb)"/>
    <path d="M-2 42 C 14 34, 24 49, 36 42 C 46 36.5, 56 39, 66 46 L66 66 L-2 66 Z" fill="#0e0c16" opacity="0.94"/>
    <path d="M-2 42 C 14 34, 24 49, 36 42 C 46 36.5, 56 39, 66 46" fill="none" stroke="url(#edge)" stroke-width="2.4" stroke-linecap="round"/>
    <path d="M-2 50 C 16 44, 30 55, 44 50 C 52 47, 60 49, 66 53" fill="none" stroke="url(#edge)" stroke-width="1.4" stroke-linecap="round" opacity="0.45"/>
  </g>
  <rect x="2.75" y="2.75" width="58.5" height="58.5" rx="14.4" fill="none" stroke="#fcfdbf" stroke-opacity="0.12" stroke-width="1.5"/>
</svg>
